<svg width="30" height="27" viewBox="0 0 30 27" fill="none" xmlns="http://www.w3.org/2000/svg">
<path fill-rule="evenodd" clip-rule="evenodd" d="M18.8639 2.5L28.3901 19C30.3146 22.3333 27.909 26.5 24.06 26.5H5.00746C1.15845 26.5 -1.24717 22.3333 0.677333 19L10.2036 2.5C12.1281 -0.833338 16.9394 -0.833328 18.8639 2.5ZM17.1318 3.5C15.9771 1.5 13.0904 1.5 11.9357 3.5L2.40938 20C1.25468 22 2.69805 24.5 5.00746 24.5H24.06C26.3694 24.5 27.8128 22 26.6581 20L17.1318 3.5Z" fill="#FFC464"/>
<path d="M13.3659 8.7998H16.3419L15.8459 16.1118H13.8619L13.3659 8.7998ZM14.8539 20.1278C14.4165 20.1278 14.0485 19.9891 13.7499 19.7118C13.4619 19.4238 13.3179 19.0771 13.3179 18.6718C13.3179 18.2665 13.4619 17.9305 13.7499 17.6638C14.0379 17.3865 14.4059 17.2478 14.8539 17.2478C15.3019 17.2478 15.6699 17.3865 15.9579 17.6638C16.2459 17.9305 16.3899 18.2665 16.3899 18.6718C16.3899 19.0771 16.2405 19.4238 15.9419 19.7118C15.6539 19.9891 15.2912 20.1278 14.8539 20.1278Z" fill="#FFC464"/>
</svg>
