<svg xmlns="http://www.w3.org/2000/svg" viewBox="0 0 25.6 25.6"><path d="M25.52,7.52a9.46,9.46,0,0,0-.59-3.1,6.27,6.27,0,0,0-1.48-2.27A6.27,6.27,0,0,0,21.18.67,9.47,9.47,0,0,0,18.07.08C16.71,0,16.27,0,12.8,0S8.89,0,7.52.08a9.46,9.46,0,0,0-3.1.59A6.27,6.27,0,0,0,2.15,2.15,6.27,6.27,0,0,0,.67,4.42a9.21,9.21,0,0,0-.59,3.1C0,8.89,0,9.32,0,12.8s0,3.91.08,5.28a9.46,9.46,0,0,0,.59,3.1,6.27,6.27,0,0,0,1.48,2.27,6.32,6.32,0,0,0,2.26,1.48,9.59,9.59,0,0,0,3.11.59c1.37.07,1.8.08,5.28.08s3.91,0,5.28-.08a9.46,9.46,0,0,0,3.1-.59,6.57,6.57,0,0,0,3.75-3.75,9.46,9.46,0,0,0,.59-3.1c.06-1.37.08-1.8.08-5.28S25.58,8.89,25.52,7.52Zm-5.89,0A1.54,1.54,0,1,1,21.17,6,1.53,1.53,0,0,1,19.63,7.5ZM12.8,19.37a6.57,6.57,0,1,1,6.57-6.57A6.57,6.57,0,0,1,12.8,19.37Z" fill="#ca8cbb" fill-rule="evenodd"/><path d="M12.8,8.53a4.27,4.27,0,1,0,4.27,4.27A4.27,4.27,0,0,0,12.8,8.53Z" fill="#ca8cbb" fill-rule="evenodd"/></svg>