<svg width="159" height="45" viewBox="0 0 159 45" fill="none" xmlns="http://www.w3.org/2000/svg">
  <path d="M44.5654 5.28335H66.9765V11.1676H51.1082V17.9015H63.4927V23.7858H51.1082V35.7454H44.5654V5.28335Z"
    fill="currentColor" />
  <path
    d="M75.2314 14.4177V35.7454H69.3472V14.4177H75.2314ZM74.7216 5.96312C75.3447 6.55791 75.6563 7.35097 75.6563 8.3423C75.6563 9.31946 75.3447 10.1054 74.7216 10.7002C74.0985 11.295 73.2488 11.5924 72.1725 11.5924C71.1811 11.5924 70.3881 11.295 69.7933 10.7002C69.2126 10.1054 68.9223 9.31946 68.9223 8.3423C68.9223 7.35097 69.2197 6.55791 69.8145 5.96312C70.4093 5.36832 71.1953 5.07092 72.1725 5.07092C73.2488 5.07092 74.0985 5.36832 74.7216 5.96312Z"
    fill="currentColor" />
  <path
    d="M87.2038 29.0115L82.6366 35.7454H76.3275L83.5076 24.8691L76.7524 14.4177H83.2951L87.2038 20.7268L91.1125 14.4177H97.6552L90.9 24.8691L98.0801 35.7454H91.771L87.2038 29.0115Z"
    fill="currentColor" />
  <path
    d="M111.115 36.1703C109.897 36.1703 108.757 35.9224 107.695 35.4268C106.647 34.9169 105.903 34.4142 105.464 33.9185L104.806 33.1325V44.8798H98.9425V14.4177H104.806V17.0306C104.862 16.9456 104.947 16.8394 105.06 16.7119C105.188 16.5845 105.443 16.3508 105.825 16.0109C106.222 15.6569 106.647 15.3453 107.1 15.0762C107.553 14.793 108.141 14.5452 108.863 14.3327C109.585 14.1062 110.336 13.9929 111.115 13.9929C113.876 13.9929 116.269 15.0692 118.295 17.2218C120.334 19.3602 121.354 21.9801 121.354 25.0816C121.354 28.183 120.334 30.81 118.295 32.9626C116.269 35.101 113.876 36.1703 111.115 36.1703ZM113.727 20.8755C112.722 19.7709 111.49 19.2186 110.031 19.2186C108.587 19.2186 107.355 19.7709 106.335 20.8755C105.315 21.966 104.806 23.368 104.806 25.0816C104.806 26.7951 105.315 28.2042 106.335 29.3089C107.355 30.4135 108.587 30.9658 110.031 30.9658C111.49 30.9658 112.722 30.4135 113.727 29.3089C114.747 28.2042 115.257 26.7951 115.257 25.0816C115.257 23.368 114.747 21.966 113.727 20.8755Z"
    fill="currentColor" />
  <path
    d="M143.756 27.0359H128.313C128.539 28.1972 129.155 29.1814 130.161 29.9886C131.166 30.7817 132.434 31.1782 133.963 31.1782C135.068 31.1782 136.088 30.9658 137.022 30.5409C137.971 30.1019 138.637 29.6629 139.019 29.2239L139.635 28.5654L142.673 32.474L142.29 32.8564C142.106 33.0405 141.724 33.345 141.143 33.7698C140.563 34.1947 139.947 34.577 139.295 34.9169C138.644 35.2427 137.794 35.533 136.746 35.7879C135.712 36.0428 134.643 36.1703 133.538 36.1703C130.409 36.1703 127.739 35.0869 125.53 32.9201C123.321 30.7392 122.216 28.1263 122.216 25.0816C122.216 22.0368 123.306 19.431 125.487 17.2642C127.668 15.0833 130.281 13.9929 133.326 13.9929C136.371 13.9929 138.906 15.0125 140.931 17.0518C142.956 19.077 143.969 21.6119 143.969 24.6567L143.756 27.0359ZM136.47 20.1108C135.62 19.3743 134.572 19.0061 133.326 19.0061C132.08 19.0061 131.018 19.3673 130.14 20.0895C129.276 20.8118 128.667 21.7535 128.313 22.9148H138.106C137.879 21.7819 137.334 20.8472 136.47 20.1108Z"
    fill="currentColor" />
  <path
    d="M159 14.2053V20.0895C158.561 19.9479 157.909 19.87 157.046 19.8558C155.502 19.8558 154.277 20.3444 153.371 21.3216C152.478 22.2988 152.032 23.7008 152.032 25.5277V35.7454H146.169V14.4177H152.032V17.0306C152.202 16.8323 152.443 16.5774 152.755 16.2658C153.066 15.9401 153.746 15.5153 154.794 14.9913C155.856 14.4673 156.968 14.2053 158.129 14.2053H159Z"
    fill="currentColor" />
  <path
    d="M29.6176 0H10.6538C9.84963 0 9.06626 0.0893214 8.31303 0.258608C3.55514 1.32794 0 5.58791 0 10.6803H18.9638C19.768 10.6803 20.5513 10.591 21.3046 10.4217C26.0625 9.35235 29.6176 5.09238 29.6176 0Z"
    fill="#F58599" />
  <path
    d="M6.24083e-06 44.8751L3.60638e-06 10.6592C3.49449e-06 9.85459 0.0893249 9.07083 0.258611 8.31722C1.32794 3.55693 5.5879 -7.77115e-07 10.6803 -1.48532e-06L10.6803 34.216C10.6803 35.0205 10.591 35.8043 10.4217 36.5579C9.35235 41.3182 5.09238 44.8751 6.24083e-06 44.8751Z"
    fill="#EB5555" />
  <path
    d="M22.5722 16.6936H10.6473C9.84358 16.6936 9.06069 16.7833 8.30792 16.9533C3.55295 18.0271 0 22.305 0 27.4188H11.9249C12.7286 27.4188 13.5115 27.3291 14.2643 27.1591C19.0192 26.0852 22.5722 21.8074 22.5722 16.6936Z"
    fill="#9871E3" />
  <path fill-rule="evenodd" clip-rule="evenodd"
    d="M10.6803 16.75V0C5.58791 7.07437e-07 1.32794 3.56013 0.258611 8.3247C0.0893249 9.07898 3.4972e-06 9.86345 3.60932e-06 10.6688L4.90163e-06 27.4084C0.00482713 22.3261 3.5672 18.0757 8.33369 17.0083C9.08879 16.8392 9.8741 16.75 10.6803 16.75Z"
    fill="#FFBA4A" />
  <path
    d="M0.258607 8.33369C0.0893213 9.08879 -1.12116e-07 9.8741 0 10.6803H10.6803L10.6803 0C9.8846 0 9.10924 0.0870115 8.36319 0.252038C8.35335 0.254214 8.34352 0.256405 8.33369 0.258609C4.31907 1.15865 1.15865 4.31907 0.258607 8.33369Z"
    fill="#F5664A" />
  <path
    d="M0.258607 25.0623C0.0893213 25.8206 -1.12116e-07 26.6092 0 27.4188H10.6803L10.6803 16.6936C9.8846 16.6936 9.10924 16.781 8.36319 16.9467C8.35335 16.9489 8.34352 16.9511 8.33369 16.9533C4.31907 17.8571 1.15865 21.0308 0.258607 25.0623Z"
    fill="#993280" />
</svg>