<svg width="26" height="25" viewBox="0 0 26 25" fill="none" xmlns="http://www.w3.org/2000/svg">
  <path
    d="M21.8661 9.68187C21.2871 7.44193 19.9494 5.47203 18.0809 4.10782C16.2123 2.74361 13.9286 2.0695 11.6187 2.20035C9.30888 2.33119 7.11586 3.2589 5.41333 4.8254C3.71079 6.3919 2.60409 8.50027 2.28179 10.7913C1.95948 13.0823 2.44152 15.4141 3.64576 17.3896C4.85001 19.365 6.70195 20.8617 8.88604 21.6248C11.0701 22.3879 13.4512 22.37 15.6236 21.5743C17.796 20.7785 19.6253 19.2542 20.7998 17.2609L19.202 16.3194C18.2454 17.9431 16.7553 19.1847 14.9858 19.8329C13.2163 20.481 11.2768 20.4956 9.49771 19.874C7.71867 19.2525 6.21017 18.0333 5.22926 16.4242C4.24835 14.8152 3.85571 12.9157 4.11824 11.0496C4.38077 9.1835 5.28223 7.46614 6.66902 6.19015C8.05582 4.91416 9.84213 4.1585 11.7236 4.05192C13.6051 3.94534 15.4653 4.49444 16.9873 5.60565C18.5093 6.71686 19.599 8.32143 20.0705 10.146L21.8661 9.68187Z"
    fill="currentColor" />
  <path d="M14.1279 8.02258L20.8233 10.2966L23.0973 3.6011" stroke="currentColor" stroke-width="2" fill="none" />
</svg>
