<svg width="114" height="75" viewBox="0 0 114 75" fill="none" xmlns="http://www.w3.org/2000/svg">
<g clip-path="url(#clip0)">
<path fill-rule="evenodd" clip-rule="evenodd" d="M88.3913 0.0117527C88.385 3.0079 85.9542 5.43478 82.9565 5.43478V5.43505C85.9576 5.43506 88.3905 7.86746 88.3913 10.8683C88.3921 7.86745 90.8251 5.43505 93.8261 5.43505V10.8696H93.8261V0H88.3913V0.00026537H93.8261V5.43505C90.8284 5.43505 88.3975 3.00802 88.3913 0.0117527Z" fill="#EB5555"/>
<path fill-rule="evenodd" clip-rule="evenodd" d="M31.326 29.3478V29.3479H21.0001V39.674C26.6847 39.674 31.2964 35.0806 31.3261 29.4031C31.3559 35.0806 35.9676 39.6738 41.652 39.6738V29.3478H41.6522V50H41.652V39.6741C35.9492 39.6741 31.3261 44.2972 31.326 50H31.3254C31.3253 44.2974 26.7026 39.6745 21 39.6741V29.3478H31.326Z" fill="#EB5555"/>
<path d="M23.1738 17.4348C23.1738 10.8074 28.5464 5.43478 35.1738 5.43478H73.1304C79.7578 5.43478 85.1303 10.8074 85.1303 17.4348V26.087H23.1738V17.4348Z" fill="#FFBA4A"/>
<path d="M49.2607 17.4348C49.2607 10.8074 54.6333 5.43478 61.2607 5.43478H73.1303C79.7577 5.43478 85.1303 10.8074 85.1303 17.4348V64.1304H49.2607V17.4348Z" fill="#FFBA4A"/>
<path d="M23.1738 17.4348C23.1738 10.8074 28.5464 5.43478 35.1738 5.43478H37.2608C43.8882 5.43478 49.2608 10.8074 49.2608 17.4348V26.087H23.1738V17.4348Z" fill="#C99035"/>
<rect x="57.9565" y="20.6522" width="33.6957" height="4.8913" fill="#993280"/>
<rect x="57.9565" y="30.4348" width="33.6957" height="4.8913" fill="#A03C7D"/>
<rect x="57.9565" y="40.2174" width="22.8261" height="4.8913" fill="#A03C7D"/>
<path d="M60.1304 75V64.1304H68.826V75L64.4782 70.6522L60.1304 75Z" fill="#993280"/>
<circle cx="64.4783" cy="59.7826" r="6.52174" fill="#EB5555"/>
</g>
<defs>
<clipPath id="clip0">
<rect width="114" height="75" fill="white"/>
</clipPath>
</defs>
</svg>
