<svg width="114" height="75" viewBox="0 0 114 75" fill="none" xmlns="http://www.w3.org/2000/svg">
<rect x="48.3984" y="2.50391" width="11.7207" height="9.37653" rx="2.34413" fill="#A03C7D"/>
<rect x="71.832" y="8.94019" width="5.26259" height="7.01679" rx="0.877099" transform="rotate(30 71.832 8.94019)" fill="#A03C7D"/>
<path d="M70.497 7.95216C70.7392 7.53265 71.2756 7.38891 71.6951 7.63112L77.7089 11.1032C78.1284 11.3454 78.2722 11.8818 78.03 12.3013L76.4258 15.0798L68.8928 10.7307L70.497 7.95216Z" fill="#A03C7D"/>
<rect width="5.26259" height="7.01679" rx="0.877099" transform="matrix(-0.866025 0.5 0.5 0.866025 35.1094 9.21921)" fill="#A03C7D"/>
<path d="M36.4449 7.95206C36.2027 7.53255 35.6663 7.38882 35.2468 7.63102L29.233 11.1031C28.8135 11.3453 28.6697 11.8817 28.9119 12.3012L30.5161 15.0797L38.0491 10.7306L36.4449 7.95206Z" fill="#A03C7D"/>
<circle cx="53.6732" cy="41.768" r="32.2318" fill="#FFBA4A"/>
<circle cx="53.6732" cy="41.768" r="29.1051" stroke="#EB5555" stroke-opacity="0.3" stroke-width="6.25352"/>
<path fill-rule="evenodd" clip-rule="evenodd" d="M95.9999 0C95.9999 7.17968 101.82 13 109 13V0H109V26H109V13.0003C101.82 13.0003 96 18.8204 95.9999 26H95.9992C95.999 18.8207 90.1792 13.0008 83 13.0003V13C90.1794 12.9996 95.9993 7.17946 95.9993 0H95.9999Z" fill="#EB5555"/>
<path fill-rule="evenodd" clip-rule="evenodd" d="M4 57.5892V57.5901C7.88099 57.5903 11.0274 60.735 11.0303 64.6154C11.0332 60.7349 14.1798 57.5901 18.061 57.5901V64.6199H18.0613V50.5586H11.0301C11.0301 54.4413 7.88268 57.589 4 57.5892ZM11.0303 50.559H18.061V57.5896C14.178 57.5896 11.0303 54.4419 11.0303 50.559Z" fill="#EB5555"/>
<path d="M36.6777 42.354H57.1889C57.1889 42.354 65.364 28.6015 71.3143 18.7605" stroke="#A03C7D" stroke-width="6.25352"/>
</svg>
