<svg width="1947" height="489" viewBox="0 0 1947 489" fill="none" xmlns="http://www.w3.org/2000/svg">
<g clip-path="url(#clip0)">
<rect y="0.651855" width="488" height="488" fill="#EE6C6C"/>
<rect x="486.67" y="0.651855" width="488" height="488" fill="#FFA3B3"/>
<path d="M0 360.652C0 161.829 161.177 0.651855 360 0.651855H488V488.652H0V360.652Z" fill="#FFC464"/>
<path d="M486.67 0.651855H974.67V488.652H846.67C647.847 488.652 486.67 327.474 486.67 128.652V0.651855Z" fill="#FD856D"/>
<rect x="1946.68" y="488.652" width="488" height="488" transform="rotate(180 1946.68 488.652)" fill="#EE6C6C"/>
<rect x="1460" y="488.652" width="488" height="488" transform="rotate(180 1460 488.652)" fill="#FFC464"/>
<path d="M1946.68 488.652L1458.68 488.652L1458.68 360.652C1458.68 161.829 1619.85 0.651793 1818.68 0.651775L1946.68 0.651764L1946.68 488.652Z" fill="#FFA3B3"/>
<path d="M1460 488.652L1332.01 488.652C1133.18 488.652 972.005 327.474 972.005 128.652L972.005 0.651807L1460 0.651764L1460 488.652Z" fill="#A284E8"/>
<path d="M1946.68 488.652L1822.46 488.652L1822.46 454.434C1822.46 404.728 1862.75 364.434 1912.46 364.434L1946.68 364.434L1946.68 488.652Z" fill="#A95094"/>
<path d="M1822.46 488.652L1698.24 488.652L1698.24 364.434L1732.46 364.434C1782.16 364.434 1822.46 404.728 1822.46 454.434L1822.46 488.652Z" fill="#A95094"/>
<path d="M1946.68 364.434L1912.46 364.434C1862.75 364.434 1822.46 324.139 1822.46 274.434L1822.46 240.215L1946.68 240.215L1946.68 364.434Z" fill="#A95094"/>
<path d="M1822.46 274.434C1822.46 324.139 1782.16 364.434 1732.46 364.434L1698.24 364.434L1698.24 240.215L1822.46 240.215L1822.46 274.434Z" fill="#A95094"/>
</g>
<defs>
<clipPath id="clip0">
<rect width="1946.68" height="488" fill="white" transform="translate(0 0.651855)"/>
</clipPath>
</defs>
</svg>
