<svg width="2881" height="382" viewBox="0 0 2881 382" fill="none" xmlns="http://www.w3.org/2000/svg">
<rect x="720.23" y="0.753906" width="360" height="381" fill="#EE6C6C"/>
<rect x="1080.23" y="0.753906" width="360" height="381" fill="#FFA3B3"/>
<rect x="360.229" y="0.753906" width="360" height="381" fill="#A284E8"/>
<path d="M720.23 360.754C720.23 161.931 881.408 0.753906 1080.23 0.753906V381.754H720.23V360.754Z" fill="#FFC464"/>
<path d="M1080.23 0.753906H1440.23V381.754C1241.41 381.754 1080.23 220.576 1080.23 21.7539V0.753906Z" fill="#FD856D"/>
<path d="M360.229 0.753906H720.229V381.754C521.407 381.754 360.229 220.576 360.229 21.7539V0.753906Z" fill="#FD856D"/>
<rect x="2160.23" y="381.754" width="360" height="381" transform="rotate(180 2160.23 381.754)" fill="#EE6C6C"/>
<rect x="360.229" y="381.754" width="360" height="381" transform="rotate(180 360.229 381.754)" fill="#EE6C6C"/>
<rect x="2880.23" y="381.754" width="360" height="381" transform="rotate(180 2880.23 381.754)" fill="#EE6C6C"/>
<rect x="1800.23" y="381.754" width="360" height="381" transform="rotate(180 1800.23 381.754)" fill="#FFC464"/>
<rect x="2520.23" y="381.754" width="360" height="381" transform="rotate(180 2520.23 381.754)" fill="#EE6C6C"/>
<path d="M2160.23 381.754L1800.23 381.754L1800.23 360.754C1800.23 161.931 1961.41 0.753955 2160.23 0.753937L2160.23 381.754Z" fill="#FFA3B3"/>
<path d="M360.229 381.754L0.228516 381.754L0.228514 360.754C0.228497 161.931 161.406 0.753955 360.228 0.753937L360.229 381.754Z" fill="#FFC464"/>
<path d="M2880.23 381.754L2520.23 381.754L2520.23 360.754C2520.23 161.931 2681.41 0.753955 2880.23 0.753937L2880.23 381.754Z" fill="#FFA3B3"/>
<path d="M1800.23 381.754C1601.41 381.754 1440.23 220.576 1440.23 21.7539L1440.23 0.75397L1800.23 0.753937L1800.23 381.754Z" fill="#A284E8"/>
<path d="M2520.23 381.754C2321.41 381.754 2160.23 220.576 2160.23 21.7539L2160.23 0.75397L2520.23 0.753937L2520.23 381.754Z" fill="#A284E8"/>
<path d="M2160.23 381.754L2070.23 381.754L2070.23 376.504C2070.23 326.798 2110.52 286.504 2160.23 286.504L2160.23 381.754Z" fill="#A95094"/>
<path d="M2070.23 381.754L1980.23 381.754L1980.23 286.504C2029.93 286.504 2070.23 326.798 2070.23 376.504L2070.23 381.754Z" fill="#A95094"/>
<path d="M2160.23 286.504C2110.52 286.504 2070.23 246.21 2070.23 196.504L2070.23 191.254L2160.23 191.254L2160.23 286.504Z" fill="#A95094"/>
<path d="M2070.23 196.504C2070.23 246.21 2029.93 286.504 1980.23 286.504L1980.23 191.254L2070.23 191.254L2070.23 196.504Z" fill="#A95094"/>
</svg>
