<svg width="100" height="100" viewBox="0 0 100 100" fill="none" xmlns="http://www.w3.org/2000/svg">
  <path opacity="0.1"
    d="M50 97.6107C50 98.9303 51.0704 100.006 52.3884 99.9429C59.3084 99.612 66.0934 97.846 72.309 94.7472C79.2383 91.2925 85.2706 86.2758 89.9306 80.0924C94.5905 73.9089 97.7507 66.7277 99.1622 59.1147C100.574 51.5018 100.198 43.665 98.0642 36.222C95.9306 28.779 92.0976 21.9333 86.8673 16.2242C81.6369 10.5151 75.1522 6.09877 67.924 3.32315C60.6959 0.547527 52.9219 -0.511501 45.2147 0.22952C38.3014 0.894216 31.6112 2.99097 25.5668 6.37638C24.4155 7.02121 24.0776 8.50059 24.7767 9.61977C25.4757 10.7389 26.9469 11.0735 28.1014 10.4345C33.5157 7.4378 39.4954 5.58002 45.6721 4.98616C52.6427 4.31595 59.6737 5.27377 66.211 7.78412C72.7483 10.2945 78.6133 14.2888 83.3438 19.4522C88.0743 24.6157 91.5409 30.8072 93.4706 37.5388C95.4003 44.2704 95.7403 51.3582 94.4637 58.2436C93.1871 65.1291 90.3289 71.6239 86.1143 77.2164C81.8998 82.8089 76.444 87.3461 70.1769 90.4706C64.6236 93.2392 58.5678 94.8315 52.3882 95.1583C51.0705 95.228 50 96.2912 50 97.6107Z"
    fill="#2F2F2F" />
  <path
    d="M35.115 47.9141C36.867 47.9141 38.3227 48.4938 39.4822 49.6533C40.6502 50.8128 41.2342 52.2686 41.2342 54.0205C41.2342 55.8571 40.5952 57.3805 39.3172 58.5908C38.0477 59.7926 36.3888 60.3936 34.3406 60.3936C33.4773 60.3936 32.6479 60.292 31.8523 60.0889C31.0652 59.8942 30.422 59.6572 29.9227 59.3779C29.4318 59.0986 29.0001 58.8236 28.6277 58.5527C28.2553 58.2734 27.993 58.028 27.8406 57.8164L27.574 57.5244L29.9227 55.0615C30.0411 55.1969 30.2062 55.3662 30.4178 55.5693C30.6378 55.764 31.1118 56.0306 31.8396 56.3691C32.5675 56.7077 33.3123 56.877 34.074 56.877C35.0473 56.877 35.8091 56.6146 36.3592 56.0898C36.9178 55.5566 37.1971 54.8669 37.1971 54.0205C37.1971 53.1742 36.9008 52.4632 36.3084 51.8877C35.7244 51.3122 34.9796 51.0244 34.074 51.0244C33.4477 51.0244 32.8891 51.1429 32.3982 51.3799C31.9074 51.6169 31.5646 51.8538 31.3699 52.0908L31.0906 52.459L28.3611 52.2051L29.0086 41.7949H40.0535V45.1846H32.5252L32.2586 48.5615C32.9526 48.1299 33.9048 47.9141 35.115 47.9141ZM47.2137 41.7949H50.4637V60H46.5662V46.7461H43.4432V44.2705C44.0018 44.2028 44.5138 44.0716 44.9793 43.877C45.4448 43.6738 45.8045 43.458 46.0584 43.2295C46.3208 43.001 46.5408 42.7809 46.7186 42.5693C46.9048 42.3493 47.0359 42.1631 47.1121 42.0107L47.2137 41.7949ZM58.4104 47.998C58.1434 48.265 58.01 48.6003 58.01 49.0039C58.01 49.401 58.1434 49.7331 58.4104 50C58.6773 50.2669 59.0093 50.4004 59.4064 50.4004C59.8101 50.4004 60.1454 50.2669 60.4123 50C60.6792 49.7331 60.8127 49.401 60.8127 49.0039C60.8127 48.6003 60.6792 48.265 60.4123 47.998C60.1454 47.7311 59.8101 47.5977 59.4064 47.5977C59.0093 47.5977 58.6773 47.7311 58.4104 47.998ZM57.9123 60L66.7111 45.9961H69.2111L60.4123 60H57.9123ZM61.8088 46.6992C62.4794 47.3633 62.8146 48.1315 62.8146 49.0039C62.8146 49.8698 62.4794 50.638 61.8088 51.3086C61.1447 51.9727 60.3439 52.3047 59.4064 52.3047C58.4755 52.3047 57.6747 51.9727 57.0041 51.3086C56.34 50.638 56.008 49.8698 56.008 49.0039C56.008 48.1315 56.34 47.3633 57.0041 46.6992C57.6747 46.0352 58.4755 45.7031 59.4064 45.7031C60.3439 45.7031 61.1447 46.0352 61.8088 46.6992ZM68.7131 57.998C68.98 57.7311 69.1135 57.3991 69.1135 57.002C69.1135 56.5983 68.98 56.263 68.7131 55.9961C68.4462 55.7292 68.1109 55.5957 67.7072 55.5957C67.3101 55.5957 66.9781 55.7292 66.7111 55.9961C66.4442 56.263 66.3107 56.5983 66.3107 57.002C66.3107 57.3991 66.4442 57.7311 66.7111 57.998C66.9781 58.265 67.3101 58.3984 67.7072 58.3984C68.1109 58.3984 68.4462 58.265 68.7131 57.998ZM65.3049 59.3066C64.6408 58.6361 64.3088 57.8678 64.3088 57.002C64.3088 56.1361 64.6408 55.3711 65.3049 54.707C65.9755 54.0365 66.7762 53.7012 67.7072 53.7012C68.6447 53.7012 69.4455 54.0365 70.1096 54.707C70.7801 55.3711 71.1154 56.1361 71.1154 57.002C71.1154 57.8678 70.7801 58.6361 70.1096 59.3066C69.4455 59.9707 68.6447 60.3027 67.7072 60.3027C66.7762 60.3027 65.9755 59.9707 65.3049 59.3066Z"
    fill="#2F2F2F" />
  <path
    d="M50 2.38094C50 1.06598 48.9334 -0.00592366 47.6199 0.0566682C40.697 0.386569 33.9091 2.15275 27.691 5.25283C20.7617 8.70748 14.7294 13.7242 10.0694 19.9076C5.4095 26.0911 2.24927 33.2723 0.837813 40.8853C-0.573648 48.4982 -0.197773 56.335 1.93582 63.778C4.0694 71.221 7.9024 78.0667 13.1327 83.7758C18.3631 89.4849 24.8478 93.9012 32.076 96.6769C39.3041 99.4525 47.0781 100.511 54.7853 99.7705C61.7014 99.1055 68.3942 97.0074 74.4405 93.6195C75.5876 92.9768 75.9244 91.5026 75.2278 90.3873C74.5311 89.272 73.0651 88.9386 71.9147 89.5756C66.4963 92.576 60.5116 94.4361 54.3295 95.0304C47.3564 95.7009 40.3228 94.7427 33.783 92.2314C27.2433 89.7202 21.3761 85.7244 16.6439 80.5591C11.9117 75.3937 8.44374 69.1999 6.51335 62.4658C4.58296 55.7317 4.24288 48.6413 5.51992 41.7533C6.79695 34.8654 9.6562 28.3681 13.8723 22.7736C18.0885 17.179 23.5463 12.6401 29.8157 9.51445C35.3737 6.74344 41.435 5.15035 47.6201 4.82453C48.9332 4.75535 50 3.6959 50 2.38094Z"
    fill="#FFC464" />
</svg>