<svg width="406" height="817" viewBox="0 0 406 817" fill="none" xmlns="http://www.w3.org/2000/svg">
<rect x="406" y="408" width="406" height="408" transform="rotate(180 406 408)" fill="#EE6C6C"/>
<path d="M406 408L3.05176e-05 408L2.6347e-05 360C9.07172e-06 161.177 161.177 -8.98273e-06 360 -2.64714e-05L406 -3.05176e-05L406 408Z" fill="#FFA3B3"/>
<path d="M406 457C406 655.822 244.823 817 46 817L3.05176e-05 817L-5.01952e-06 408L406 407.999L406 457Z" fill="#FFC464"/>
<path d="M406 408.499L304.5 408.499L304.5 396.374C304.5 346.669 344.794 306.374 394.5 306.374L406 306.374L406 408.499Z" fill="#A95094"/>
<path d="M304.5 408.5L203 408.5L203 306.375L214.5 306.375C264.205 306.375 304.5 346.669 304.5 396.375L304.5 408.5Z" fill="#A95094"/>
<path d="M406 306.375L394.5 306.375C344.794 306.375 304.5 266.08 304.5 216.374L304.5 204.25L406 204.25L406 306.375Z" fill="#A95094"/>
<path d="M304.5 216.374C304.5 266.08 264.205 306.375 214.5 306.375L203 306.375L203 204.25L304.5 204.25L304.5 216.374Z" fill="#A95094"/>
</svg>
