<svg width="114" height="75" viewBox="0 0 114 75" fill="none" xmlns="http://www.w3.org/2000/svg">
<path d="M23.9839 37.5H90.5161V61C90.5161 68.732 84.2481 75 76.5161 75H37.9839C30.2519 75 23.9839 68.732 23.9839 61V37.5Z" fill="#FFBA4A"/>
<path d="M66.3228 42.3386H80.8389V61.5322C80.8389 64.2936 78.6003 66.5322 75.8389 66.5322H71.3227C68.5613 66.5322 66.3228 64.2936 66.3228 61.5322V42.3386Z" fill="#CA8CBB"/>
<path d="M39.7095 31.4517H54.2256V61.5323C54.2256 64.2937 51.987 66.5323 49.2256 66.5323H44.7095C41.948 66.5323 39.7095 64.2937 39.7095 61.5323V31.4517Z" fill="#A03C7D"/>
<circle cx="46.9677" cy="18.1452" r="16.9355" fill="#A03C7D"/>
<path d="M70.5567 13.4703V42.3386H76.6051V13.4703L78.4196 8.22158L76.6051 3.62891H70.5567L68.7422 8.22158L70.5567 13.4703Z" fill="#993280"/>
<path d="M46.9678 22.9839L40.9194 19.9597V1.20968V0.604839V0H52.4114V19.9597L46.9678 22.9839Z" fill="white"/>
<path fill-rule="evenodd" clip-rule="evenodd" d="M15.081 42.3386H1V56.4196H1.0001V49.3795C4.87992 49.3795 8.02674 52.5177 8.04056 56.3943C8.05434 52.5261 11.1877 49.3929 15.056 49.3795C11.1877 49.3661 8.05436 46.2329 8.04055 42.3647C8.02651 46.2411 4.87977 49.3792 1.0001 49.3792V42.3387H8.0406V42.339H15.081V42.3386Z" fill="#EB5555"/>
<path fill-rule="evenodd" clip-rule="evenodd" d="M83.2578 22.1209C91.4532 22.1205 98.0992 15.487 98.1199 7.29628C98.1405 15.4872 104.787 22.1208 112.983 22.1208V7.25806H112.983V36.9837H112.983V22.1212C104.774 22.1212 98.12 28.7753 98.1198 36.9837H98.1195C98.1193 28.7757 91.4657 22.1218 83.2578 22.1212V22.1209Z" fill="#EB5555"/>
</svg>
