<svg width="625" height="299" viewBox="0 0 625 299" fill="none" xmlns="http://www.w3.org/2000/svg">
  <path
    d="M103.889 109.717L110.541 84.8888L130.188 90.1531L123.536 114.981L118.285 113.574L123.763 93.1276L114.618 90.6771L109.139 111.124L103.889 109.717ZM145.133 100.046C147.266 100.618 148.769 101.915 149.643 103.938C150.524 105.938 150.532 108.549 149.669 111.772C148.805 114.994 147.463 117.268 145.642 118.594C143.827 119.897 141.853 120.262 139.72 119.691C138.353 119.324 137.328 118.789 136.647 118.085C135.973 117.357 135.464 116.612 135.122 115.85L134.844 115.775C134.768 116.798 134.612 117.751 134.376 118.631L132.327 126.282L127.145 124.893L134.469 97.5615L138.676 98.6889L138.745 101.353L138.989 101.419C139.704 100.79 140.564 100.313 141.571 99.9864C142.578 99.6598 143.765 99.6798 145.133 100.046ZM142.355 103.737C141.011 103.377 139.948 103.539 139.168 104.225C138.412 104.917 137.78 106.114 137.274 107.817L137.125 108.373C136.634 110.205 136.522 111.69 136.788 112.83C137.084 113.953 137.95 114.707 139.387 115.092C140.57 115.409 141.569 115.155 142.387 114.33C143.233 113.489 143.905 112.141 144.402 110.286C145.402 106.554 144.72 104.371 142.355 103.737ZM159.469 112.31C159.363 112.705 159.209 113.185 159.008 113.752C158.829 114.326 158.636 114.907 158.428 115.498C158.244 116.094 158.066 116.618 157.895 117.069C157.725 117.521 157.603 117.836 157.53 118.015L169.862 107.045L176.086 108.713L170.999 127.699L165.991 126.357L168.023 118.777C168.19 118.151 168.397 117.473 168.642 116.744C168.893 115.991 169.129 115.296 169.349 114.66C169.599 114.006 169.782 113.509 169.898 113.167L157.611 124.112L151.387 122.444L156.474 103.458L161.481 104.799L159.469 112.31ZM205.425 116.574L200.338 135.56L195.504 134.265L198.001 124.946C198.25 124.019 198.504 123.118 198.763 122.243C199.045 121.375 199.321 120.579 199.589 119.855L199.485 119.828L190.358 132.886L186.463 131.843L185.028 115.917L184.889 115.879C184.777 116.669 184.614 117.508 184.402 118.395C184.218 119.265 183.987 120.222 183.707 121.265L181.247 130.445L176.414 129.15L181.501 110.164L188.838 112.13L190.12 126.263L198.366 114.683L205.425 116.574ZM218.758 119.774C221.378 120.476 223.251 121.785 224.377 123.702C225.51 125.596 225.706 127.922 224.967 130.681L224.296 133.184L212.056 129.905C211.711 131.377 211.832 132.64 212.42 133.692C213.031 134.75 214.067 135.475 215.527 135.866C216.756 136.195 217.9 136.378 218.959 136.413C220.024 136.425 221.158 136.319 222.361 136.095L221.289 140.094C220.238 140.309 219.163 140.381 218.064 140.31C216.981 140.269 215.71 140.052 214.25 139.661C212.349 139.151 210.761 138.353 209.487 137.267C208.219 136.157 207.36 134.771 206.911 133.11C206.462 131.449 206.529 129.529 207.113 127.35C207.709 125.125 208.574 123.381 209.707 122.119C210.869 120.841 212.222 120.011 213.766 119.629C215.309 119.247 216.973 119.296 218.758 119.774ZM217.805 123.469C216.809 123.202 215.887 123.303 215.041 123.772C214.218 124.247 213.565 125.153 213.083 126.49L220.35 128.437C220.638 127.272 220.591 126.241 220.21 125.344C219.836 124.423 219.034 123.799 217.805 123.469ZM242.05 126.015C244.183 126.587 245.686 127.884 246.561 129.907C247.441 131.907 247.449 134.518 246.586 137.741C245.723 140.963 244.38 143.237 242.559 144.563C240.744 145.865 238.77 146.231 236.637 145.66C235.27 145.293 234.245 144.758 233.564 144.053C232.89 143.326 232.381 142.581 232.039 141.818L231.761 141.744C231.685 142.767 231.53 143.719 231.293 144.6L229.244 152.25L224.062 150.862L231.386 123.53L235.594 124.658L235.662 127.322L235.906 127.388C236.621 126.759 237.482 126.282 238.488 125.955C239.495 125.629 240.682 125.649 242.05 126.015ZM239.272 129.706C237.928 129.346 236.865 129.508 236.085 130.194C235.329 130.885 234.697 132.083 234.191 133.786L234.042 134.342C233.551 136.174 233.439 137.659 233.705 138.799C234.001 139.922 234.867 140.676 236.304 141.061C237.487 141.377 238.486 141.124 239.304 140.299C240.15 139.457 240.822 138.109 241.319 136.255C242.319 132.522 241.637 130.339 239.272 129.706ZM277.582 141.238C277.309 142.258 276.751 143.041 275.91 143.585C275.091 144.136 274.028 144.348 272.72 144.222L272.683 144.361C273.961 144.877 274.895 145.612 275.484 146.565C276.097 147.524 276.248 148.583 275.937 149.742C275.645 150.832 275.094 151.728 274.285 152.43C273.499 153.139 272.426 153.572 271.067 153.73C269.708 153.887 268.032 153.699 266.038 153.165L256.997 150.742L262.084 131.756L271.125 134.178C272.609 134.576 273.887 135.092 274.959 135.727C276.061 136.346 276.851 137.104 277.331 138.003C277.834 138.908 277.918 139.986 277.582 141.238ZM272.22 140.249C272.53 139.089 271.77 138.264 269.938 137.774L266.287 136.795L265.281 140.551L268.341 141.371C269.43 141.663 270.294 141.733 270.931 141.58C271.597 141.411 272.027 140.967 272.22 140.249ZM270.657 148.029C270.855 147.287 270.708 146.676 270.216 146.197C269.729 145.694 268.907 145.287 267.748 144.976L264.34 144.063L263.138 148.549L266.65 149.49C267.624 149.751 268.47 149.791 269.189 149.611C269.938 149.414 270.427 148.887 270.657 148.029ZM291.871 139.364C294.49 140.066 296.363 141.376 297.489 143.293C298.622 145.186 298.819 147.512 298.079 150.271L297.408 152.775L285.168 149.495C284.823 150.968 284.945 152.23 285.532 153.282C286.143 154.34 287.179 155.065 288.64 155.457C289.868 155.786 291.012 155.968 292.071 156.003C293.136 156.015 294.27 155.909 295.473 155.685L294.402 159.684C293.35 159.899 292.275 159.971 291.176 159.9C290.094 159.859 288.822 159.642 287.362 159.251C285.461 158.742 283.873 157.944 282.599 156.857C281.331 155.747 280.473 154.361 280.023 152.701C279.574 151.04 279.641 149.12 280.225 146.94C280.821 144.715 281.686 142.971 282.819 141.71C283.982 140.431 285.335 139.601 286.878 139.219C288.421 138.838 290.086 138.886 291.871 139.364ZM290.918 143.06C289.921 142.793 288.999 142.894 288.153 143.363C287.33 143.838 286.677 144.744 286.195 146.08L293.463 148.028C293.75 146.862 293.703 145.831 293.323 144.934C292.948 144.014 292.146 143.389 290.918 143.06ZM286.997 133.213C287.214 132.402 287.601 131.885 288.158 131.661C288.721 131.414 289.327 131.378 289.976 131.552C290.625 131.726 291.132 132.06 291.496 132.556C291.89 133.034 291.978 133.678 291.76 134.49C291.556 135.255 291.16 135.758 290.574 135.998C290.011 136.245 289.405 136.281 288.755 136.107C288.106 135.933 287.6 135.599 287.235 135.104C286.871 134.608 286.792 133.978 286.997 133.213ZM293.847 135.049C294.064 134.238 294.451 133.72 295.008 133.497C295.571 133.25 296.189 133.217 296.861 133.397C297.51 133.571 298.017 133.905 298.381 134.4C298.775 134.879 298.863 135.523 298.646 136.335C298.441 137.1 298.045 137.602 297.459 137.843C296.896 138.09 296.29 138.126 295.641 137.952C294.968 137.772 294.45 137.434 294.086 136.939C293.722 136.444 293.642 135.814 293.847 135.049ZM315.162 145.605C317.295 146.177 318.799 147.474 319.673 149.497C320.553 151.497 320.562 154.109 319.698 157.331C318.835 160.553 317.493 162.827 315.671 164.153C313.856 165.456 311.882 165.821 309.75 165.25C308.382 164.883 307.358 164.348 306.677 163.644C306.002 162.916 305.493 162.171 305.151 161.409L304.873 161.334C304.798 162.358 304.642 163.31 304.406 164.191L302.356 171.841L297.175 170.453L304.498 143.121L308.706 144.248L308.774 146.913L309.018 146.978C309.733 146.35 310.594 145.872 311.601 145.546C312.607 145.219 313.795 145.239 315.162 145.605ZM312.385 149.296C311.04 148.936 309.978 149.099 309.198 149.784C308.441 150.476 307.81 151.673 307.303 153.376L307.154 153.933C306.664 155.764 306.551 157.25 306.817 158.389C307.113 159.512 307.979 160.266 309.417 160.651C310.599 160.968 311.599 160.714 312.416 159.889C313.263 159.048 313.934 157.7 314.431 155.845C315.431 152.113 314.749 149.93 312.385 149.296ZM329.042 170.419C326.214 169.662 324.232 168.298 323.094 166.329C321.987 164.342 321.883 161.668 322.784 158.307C323.405 155.989 324.306 154.205 325.485 152.956C326.665 151.706 328.043 150.92 329.62 150.598C331.221 150.281 332.937 150.368 334.768 150.859C336.066 151.207 337.157 151.635 338.039 152.145C338.944 152.661 339.709 153.189 340.335 153.729L337.733 157.318C337.009 156.776 336.315 156.305 335.653 155.904C335.013 155.509 334.345 155.218 333.65 155.032C330.961 154.311 329.104 155.863 328.079 159.688C327.57 161.589 327.542 163.085 327.995 164.175C328.471 165.272 329.347 165.991 330.622 166.333C331.711 166.625 332.711 166.744 333.62 166.689C334.535 166.611 335.455 166.423 336.38 166.124L335.197 170.54C334.272 170.839 333.341 170.975 332.404 170.948C331.484 170.949 330.364 170.773 329.042 170.419ZM359.039 161.909L352.815 160.241L348.771 175.333L343.59 173.945L347.634 158.853L341.409 157.185L342.453 153.291L360.083 158.015L359.039 161.909ZM376.035 162.289L381.737 163.817L371.785 170.915L377.311 182.98L371.434 181.406L366.261 169.695L363.68 179.328L358.498 177.939L363.586 158.953L368.767 160.341L366.298 169.556L376.035 162.289ZM388.11 173.575C388.004 173.969 387.851 174.449 387.649 175.017C387.471 175.59 387.278 176.172 387.07 176.762C386.885 177.359 386.707 177.882 386.537 178.334C386.366 178.785 386.244 179.1 386.172 179.279L398.503 168.309L404.727 169.977L399.64 188.963L394.633 187.622L396.664 180.041C396.832 179.415 397.038 178.737 397.283 178.008C397.535 177.255 397.77 176.561 397.991 175.924C398.24 175.27 398.423 174.773 398.54 174.431L386.252 185.376L380.028 183.708L385.115 164.722L390.123 166.064L388.11 173.575ZM421.375 195.16C418.547 194.402 416.564 193.038 415.427 191.069C414.32 189.083 414.216 186.409 415.117 183.047C415.738 180.729 416.638 178.945 417.818 177.696C418.997 176.447 420.376 175.661 421.953 175.338C423.553 175.021 425.269 175.109 427.101 175.599C428.399 175.947 429.489 176.376 430.371 176.886C431.277 177.401 432.042 177.93 432.668 178.47L430.066 182.059C429.342 181.517 428.648 181.045 427.985 180.644C427.346 180.249 426.678 179.958 425.983 179.772C423.294 179.052 421.437 180.604 420.412 184.429C419.902 186.33 419.874 187.825 420.327 188.916C420.804 190.013 421.68 190.732 422.955 191.073C424.044 191.365 425.043 191.484 425.953 191.429C426.868 191.352 427.788 191.163 428.713 190.865L427.529 195.281C426.605 195.58 425.674 195.715 424.737 195.688C423.817 195.69 422.696 195.514 421.375 195.16ZM444.59 180.248C447.14 180.931 448.938 182.01 449.984 183.483C451.06 184.939 451.294 186.803 450.685 189.074L447.293 201.732L443.677 200.763L443.358 197.92L443.219 197.882C442.134 198.685 441.078 199.197 440.049 199.418C439.021 199.64 437.719 199.539 436.142 199.117C434.45 198.663 433.178 197.801 432.326 196.529C431.48 195.234 431.331 193.566 431.878 191.526C432.418 189.509 433.523 188.215 435.191 187.644C436.866 187.049 439.13 187.084 441.983 187.749L445.315 188.53L445.539 187.695C445.806 186.699 445.735 185.897 445.326 185.29C444.94 184.69 444.283 184.266 443.356 184.017C442.429 183.769 441.487 183.666 440.532 183.708C439.583 183.727 438.615 183.815 437.628 183.973L436.866 180.005C438.028 179.745 439.265 179.629 440.574 179.657C441.907 179.691 443.245 179.888 444.59 180.248ZM442.469 191.084C440.787 190.684 439.547 190.674 438.749 191.057C437.951 191.439 437.431 192.083 437.189 192.987C436.977 193.775 437.057 194.405 437.427 194.877C437.804 195.326 438.363 195.649 439.105 195.848C440.218 196.146 441.244 196.073 442.183 195.629C443.128 195.162 443.762 194.326 444.085 193.12L444.504 191.555L442.469 191.084ZM478.06 180.868C477.621 182.043 477 183.019 476.195 183.797C475.396 184.552 474.337 185.026 473.018 185.219C471.699 185.413 470.043 185.242 468.049 184.708C466.009 184.161 464.475 183.489 463.446 182.692C462.447 181.877 461.825 180.953 461.581 179.918C461.336 178.884 461.335 177.728 461.578 176.452L466.203 177.691C465.977 178.997 466.075 179.93 466.496 180.49C466.917 181.05 467.731 181.492 468.936 181.815C469.933 182.082 470.804 182.079 471.548 181.806C472.321 181.517 472.927 180.785 473.366 179.61L478.06 180.868ZM460.679 193.02C460.573 193.414 460.42 193.894 460.218 194.461C460.04 195.035 459.846 195.617 459.639 196.207C459.454 196.803 459.276 197.327 459.106 197.778C458.935 198.23 458.813 198.545 458.74 198.724L471.072 187.754L477.296 189.422L472.209 208.408L467.202 207.066L469.233 199.486C469.401 198.86 469.607 198.182 469.852 197.453C470.104 196.7 470.339 196.006 470.56 195.369C470.809 194.715 470.992 194.218 471.109 193.876L458.821 204.821L452.597 203.153L457.684 184.167L462.692 185.509L460.679 193.02ZM497.386 198.979L491.161 197.311L487.117 212.403L481.936 211.014L485.98 195.923L479.755 194.255L480.799 190.36L498.429 195.084L497.386 198.979ZM509.824 197.728C512.374 198.411 514.172 199.489 515.218 200.962C516.294 202.418 516.528 204.282 515.919 206.554L512.527 219.211L508.911 218.242L508.592 215.399L508.453 215.362C507.368 216.164 506.312 216.676 505.283 216.898C504.255 217.119 502.953 217.019 501.376 216.596C499.684 216.143 498.412 215.28 497.56 214.008C496.714 212.713 496.565 211.046 497.112 209.006C497.652 206.989 498.757 205.695 500.425 205.123C502.1 204.528 504.364 204.563 507.217 205.229L510.549 206.009L510.772 205.175C511.04 204.178 510.969 203.376 510.56 202.77C510.174 202.17 509.517 201.745 508.59 201.497C507.663 201.248 506.721 201.145 505.766 201.187C504.817 201.206 503.849 201.295 502.862 201.453L502.099 197.484C503.262 197.224 504.499 197.108 505.808 197.136C507.141 197.17 508.479 197.367 509.824 197.728ZM507.703 208.564C506.021 208.163 504.781 208.154 503.983 208.536C503.185 208.919 502.665 209.562 502.423 210.466C502.211 211.254 502.291 211.884 502.661 212.356C503.038 212.805 503.597 213.129 504.339 213.328C505.452 213.626 506.478 213.553 507.417 213.109C508.362 212.641 508.996 211.805 509.319 210.6L509.738 209.035L507.703 208.564Z"
    fill="black" fill-opacity="0.2" />
</svg>
