<svg width="114" height="75" viewBox="0 0 114 75" fill="none" xmlns="http://www.w3.org/2000/svg">
<g clip-path="url(#clip0)">
<path d="M23.6377 54.0862C23.6377 46.3542 29.9057 40.0862 37.6377 40.0862H82.0515C89.7835 40.0862 96.0515 46.3543 96.0515 54.0862V75H23.6377V54.0862Z" fill="#FFBA4A"/>
<path fill-rule="evenodd" clip-rule="evenodd" d="M102.52 29.7414H90.8794V41.3816H90.8796V35.5617C94.0862 35.5617 96.6871 38.1549 96.6997 41.3585C96.7123 38.1549 99.3131 35.5618 102.52 35.5617V35.5617C99.3064 35.5616 96.7014 32.9577 96.6996 29.7449C96.6978 32.9576 94.0927 35.5615 90.8795 35.5615V29.7414H96.6996L96.6996 29.7416H102.52V29.7414Z" fill="#EB5555"/>
<path fill-rule="evenodd" clip-rule="evenodd" d="M24.2859 11.6379C24.286 18.4235 29.7869 23.9244 36.5725 23.9244V11.6379H36.5732V36.2111H36.5725V23.9246C29.7869 23.9246 24.286 29.4254 24.2859 36.2111H24.2857C24.2856 29.4257 18.7852 23.9251 12 23.9246V23.9245C18.7854 23.9241 24.2859 18.4233 24.2859 11.6379H24.2859Z" fill="#EB5555"/>
<circle cx="60.4916" cy="17.4569" r="17.4569" fill="#FFBA4A"/>
<rect x="39.1553" y="62.069" width="41.3793" height="12.931" fill="#A03C7D"/>
<rect x="74.0688" y="40.0862" width="6.46552" height="34.9138" fill="#A03C7D"/>
<rect x="39.1553" y="40.0862" width="6.46552" height="34.9138" fill="#A03C7D"/>
</g>
<defs>
<clipPath id="clip0">
<rect width="114" height="75" fill="white"/>
</clipPath>
</defs>
</svg>
